<?xml version="1.0" standalone="no"?>
<!DOCTYPE svg PUBLIC "-//W3C//DTD SVG 20010904//EN"
 "http://www.w3.org/TR/2001/REC-SVG-20010904/DTD/svg10.dtd">
<svg version="1.0" xmlns="http://www.w3.org/2000/svg"
 width="450.000000pt" height="338.000000pt" viewBox="0 0 450.000000 338.000000"
 preserveAspectRatio="xMidYMid meet">
<metadata>
Created by potrace 1.10, written by Peter Selinger 2001-2011
</metadata>
<g transform="translate(0.000000,338.000000) scale(0.100000,-0.100000)"
fill="#000000" stroke="none">
<path d="M80 3374 c0 -1 6 -7 14 -13 10 -9 16 -8 26 4 11 13 9 15 -14 13 -14
-1 -26 -3 -26 -4z"/>
<path d="M927 3373 c-5 -5 -1 -82 8 -155 3 -23 0 -38 -8 -42 -7 -2 -4 -5 6 -5
20 -1 24 -37 5 -44 -10 -3 -10 -7 -1 -18 7 -8 17 -66 23 -129 7 -63 14 -117
16 -119 13 -14 15 21 5 126 -6 65 -14 147 -17 183 -3 36 -9 92 -13 125 -5 37
-5 62 1 66 5 3 3 9 -5 12 -8 3 -17 3 -20 0z"/>
<path d="M1000 3371 c-24 -7 -24 -7 -3 -13 14 -4 24 -1 27 8 3 8 4 14 3 13 -1
-1 -13 -4 -27 -8z"/>
<path d="M1116 3290 c3 -52 10 -99 15 -105 7 -7 8 14 3 60 -11 119 -23 150
-18 45z"/>
<path d="M1774 3365 c3 -8 0 -15 -6 -15 -9 0 -9 -3 0 -12 18 -18 15 -46 -5
-51 -16 -4 -16 -5 -1 -6 24 -2 25 -117 0 -125 -9 -2 -6 -4 8 -3 24 2 25 5 24
67 -2 136 -4 160 -15 160 -6 0 -9 -7 -5 -15z"/>
<path d="M1850 3375 c8 -2 32 -6 52 -10 42 -7 71 -41 47 -56 -10 -6 -10 -9 -2
-9 7 0 15 -21 19 -50 11 -84 26 -58 18 33 -3 45 -8 84 -10 86 -1 2 -34 5 -71
7 -37 2 -61 1 -53 -1z"/>
<path d="M2184 3365 c3 -8 6 -82 7 -165 0 -94 5 -152 12 -157 7 -4 8 7 4 33
-4 21 -7 99 -7 172 0 90 -4 132 -11 132 -6 0 -9 -7 -5 -15z"/>
<path d="M2340 3369 c87 -10 95 -12 134 -28 15 -6 36 -10 45 -9 11 2 18 -7 22
-32 l6 -35 3 33 c2 17 3 38 4 45 1 17 -92 34 -199 34 l-90 1 75 -9z"/>
<path d="M3709 3368 c-4 -68 -3 -88 4 -88 4 0 7 23 7 50 0 28 -2 50 -5 50 -3
0 -5 -6 -6 -12z"/>
<path d="M3776 3364 c-9 -23 -4 -24 17 -2 13 14 14 18 3 18 -8 0 -17 -7 -20
-16z"/>
<path d="M3888 3362 c-3 -10 -3 -34 0 -53 5 -32 6 -33 13 -9 10 36 10 80 0 80
-5 0 -11 -8 -13 -18z"/>
<path d="M3430 3353 c0 -7 -12 -13 -26 -13 -20 0 -25 -4 -20 -16 3 -9 6 -20 6
-26 0 -6 10 -8 23 -4 28 7 109 -25 102 -41 -2 -7 0 -13 5 -13 6 0 10 6 10 14
0 7 15 17 33 20 31 7 30 8 -43 38 -41 16 -78 35 -82 41 -6 9 -8 9 -8 0z"/>
<path d="M180 3331 c0 -11 11 -32 25 -47 14 -15 25 -36 25 -48 0 -16 2 -18 9
-7 9 14 -19 82 -46 109 -11 11 -13 10 -13 -7z"/>
<path d="M2768 3079 c1 -150 5 -269 8 -267 3 3 5 121 5 262 0 235 1 256 17
257 14 0 14 2 -3 9 -11 5 -22 9 -25 9 -3 1 -4 -121 -2 -270z"/>
<path d="M1810 3326 c0 -9 16 -16 45 -20 46 -7 46 -8 49 -65 1 -13 6 -26 12
-28 7 -2 10 6 7 22 -4 17 -1 25 8 25 10 0 11 3 3 8 -7 4 -13 16 -15 26 -2 11
-15 23 -29 26 -75 20 -80 20 -80 6z"/>
<path d="M975 3300 c-3 -5 3 -10 14 -10 12 0 21 5 21 10 0 6 -6 10 -14 10 -8
0 -18 -4 -21 -10z"/>
<path d="M3750 3265 c0 -9 9 -19 20 -22 26 -7 46 -45 55 -105 8 -51 4 -50 87
-33 14 2 17 -5 15 -41 -1 -32 -6 -44 -18 -44 -9 0 -18 3 -22 6 -3 4 -38 8 -77
9 -67 3 -70 2 -70 -20 0 -18 4 -22 19 -18 29 7 57 -60 61 -141 0 -6 6 -2 13 7
6 9 30 17 52 19 33 2 41 7 43 26 2 12 7 20 12 17 4 -3 13 2 20 10 10 13 9 15
-9 15 -16 0 -21 6 -21 26 0 18 4 25 14 21 8 -3 17 1 20 9 9 23 8 24 -10 17
-15 -6 -16 4 -10 103 l7 109 -33 17 c-18 10 -46 18 -63 18 -16 -1 -47 2 -67 6
-32 5 -38 3 -38 -11z m130 -25 c0 -5 -8 -14 -17 -19 -10 -6 -13 -11 -7 -11 12
0 15 -90 4 -90 -12 0 -47 119 -37 123 23 7 57 6 57 -3z m56 -42 c-3 -13 -6
-34 -6 -48 0 -20 -5 -26 -26 -28 -25 -2 -26 0 -20 36 3 20 6 43 6 50 0 6 12
12 26 12 22 0 25 -3 20 -22z m-35 -198 c16 0 19 -7 19 -50 l0 -50 -43 0 -43 0
-13 51 c-15 57 -12 66 19 47 17 -11 20 -19 16 -47 -3 -22 -2 -31 4 -25 6 6 11
30 12 54 1 25 3 39 6 32 2 -6 12 -12 23 -12z"/>
<path d="M686 3242 c-5 -8 29 -52 40 -52 2 0 -2 14 -11 30 -16 32 -21 35 -29
22z"/>
<path d="M3380 3242 c0 -4 15 -12 33 -17 30 -10 32 -13 33 -59 1 -74 24 -72
24 2 l0 59 -39 11 c-45 14 -51 15 -51 4z"/>
<path d="M3702 3204 c-1 -23 -4 -70 -7 -105 -4 -58 -4 -60 6 -24 5 22 8 69 6
105 -2 39 -4 49 -5 24z"/>
<path d="M0 3221 c0 -4 23 -11 52 -14 28 -4 55 -11 58 -17 4 -6 15 -66 25
-133 9 -67 21 -126 26 -132 12 -12 11 -5 -2 75 -6 36 -12 76 -14 90 -2 14 -8
46 -13 73 -5 26 -7 47 -3 48 3 1 -5 5 -19 9 -34 11 -110 12 -110 1z"/>
<path d="M3517 3200 c-3 -11 -2 -20 3 -20 4 0 10 9 13 20 3 11 2 20 -3 20 -4
0 -10 -9 -13 -20z"/>
<path d="M1080 3142 c0 -10 47 -22 83 -22 13 0 17 4 12 9 -14 13 -95 24 -95
13z"/>
<path d="M3514 3143 c3 -3 1 -14 -4 -23 -7 -13 -6 -20 6 -24 22 -8 22 -8 20
12 0 9 5 16 12 14 22 -4 4 15 -19 21 -11 3 -18 3 -15 0z"/>
<path d="M305 3123 c4 -10 8 -24 8 -30 0 -7 6 -13 13 -13 9 0 9 7 -2 30 -16
32 -31 42 -19 13z"/>
<path d="M1434 3123 c4 -9 1 -20 -6 -25 -9 -5 -6 -8 9 -8 12 0 30 -3 40 -6 10
-3 7 1 -7 9 -14 9 -24 18 -22 21 5 14 1 26 -9 26 -6 0 -8 -7 -5 -17z"/>
<path d="M1255 3120 c11 -5 29 -8 40 -8 16 0 15 2 -5 8 -34 11 -60 11 -35 0z"/>
<path d="M1760 3121 c0 -6 5 -13 10 -16 6 -3 10 -16 10 -29 0 -12 16 -40 36
-62 19 -21 32 -33 28 -25 -6 11 -1 13 26 8 18 -4 43 -7 56 -7 17 0 24 -6 24
-19 0 -10 7 -22 16 -25 10 -4 13 -13 9 -25 -3 -11 -1 -22 5 -26 5 -3 10 -24
10 -46 l0 -39 -47 5 c-27 2 -98 7 -160 10 -62 3 -120 8 -130 9 -10 2 -47 5
-83 7 -57 4 -65 2 -64 -13 1 -13 -4 -17 -20 -13 -11 2 -84 7 -161 10 -177 7
-306 14 -370 20 -27 2 -129 7 -225 11 -96 3 -177 8 -180 9 -3 2 -64 6 -135 10
-72 3 -188 10 -260 16 -161 11 -158 11 -150 -1 3 -5 26 -10 51 -10 28 0 43 -4
39 -10 -3 -5 -27 -10 -53 -10 -31 -1 -42 -4 -32 -9 8 -5 89 -12 180 -15 91 -4
304 -13 475 -21 171 -8 387 -17 480 -21 226 -8 321 -17 318 -29 -2 -5 -18 -10
-37 -11 -58 -4 -150 -25 -175 -41 -22 -14 -65 -15 -345 -10 -662 14 -812 18
-850 23 l-39 5 7 -33 c4 -18 16 -84 26 -147 10 -62 21 -116 25 -119 3 -3 4 27
2 67 -2 48 -8 76 -18 81 -15 10 -5 15 41 23 21 4 20 4 -6 6 -25 1 -33 6 -38
27 -15 58 -7 62 122 58 64 -1 182 -4 262 -5 117 -1 149 -5 163 -17 12 -11 17
-12 15 -4 -2 10 35 13 177 11 232 -3 258 -4 262 -15 4 -15 -170 -135 -189
-130 -20 5 -25 -10 -6 -16 6 -2 8 -10 4 -17 -5 -7 -12 -9 -19 -3 -17 12 -127
14 -127 2 0 -5 -13 -7 -30 -3 -19 3 -30 1 -30 -6 0 -14 50 -14 87 0 19 7 29 7
31 0 2 -6 18 -11 35 -11 26 -1 29 -3 15 -10 -9 -6 -60 -10 -113 -11 l-97 -1 6
-40 c4 -26 3 -37 -4 -33 -5 3 -10 12 -10 18 0 7 -9 13 -20 14 -11 1 -20 -4
-20 -13 0 -15 -1 -15 -37 -19 -14 -1 -20 2 -16 11 3 8 0 14 -7 14 -15 0 -41
26 -33 34 4 3 -1 6 -10 6 -11 0 -15 7 -12 21 3 12 1 29 -4 37 -6 11 -10 3 -13
-27 -3 -35 1 -50 25 -82 24 -32 33 -38 51 -33 11 4 48 8 81 10 33 1 69 5 81 9
14 4 25 1 35 -12 12 -16 12 -17 -1 -7 -9 7 -23 9 -36 4 -17 -7 -20 -14 -16
-35 5 -30 -16 -77 -31 -68 -6 4 -7 1 -3 -6 10 -15 14 -11 147 119 214 211 408
311 684 355 153 24 510 47 719 45 110 0 203 -3 208 -6 17 -11 7 14 -15 34 -18
17 -26 19 -36 9 -19 -19 -109 -18 -116 1 -3 9 -5 56 -4 105 1 70 -2 92 -15
105 -15 15 -16 15 -16 -5 0 -12 5 -25 10 -28 6 -3 10 -44 10 -91 0 -66 -3 -83
-12 -78 -9 5 -8 2 1 -9 8 -10 11 -21 7 -25 -4 -4 -19 7 -32 23 -16 21 -24 25
-24 14 0 -12 -13 -18 -52 -22 -29 -2 -58 -1 -64 4 -6 5 -13 7 -15 5 -2 -2 -5
25 -6 60 -2 51 0 64 12 64 8 0 15 7 15 15 0 10 -11 15 -32 16 -19 1 -25 3 -15
6 11 3 16 11 13 19 -3 8 -1 14 4 14 6 0 5 10 -2 25 -12 28 2 55 30 55 40 0 -7
15 -85 26 -104 16 -183 18 -183 5z m180 -37 c8 -1 17 -3 20 -3 3 -1 5 -19 6
-42 l0 -41 -60 7 c-51 6 -110 24 -82 25 4 0 -2 9 -15 20 -15 12 -19 19 -10 20
8 0 11 6 7 15 -5 13 3 15 57 9 34 -4 69 -8 77 -10z m-1700 -225 c10 -6 0 -9
-30 -8 -65 1 -101 9 -94 21 7 11 100 1 124 -13z m1294 -44 c-4 -8 -2 -15 4
-15 5 0 12 6 15 14 4 11 16 12 50 5 24 -4 77 -9 118 -10 41 -1 83 -6 94 -11
14 -6 7 -7 -23 -4 -24 2 -56 0 -73 -4 -18 -5 -29 -5 -29 1 0 6 -7 6 -17 1 -10
-5 -50 -12 -90 -15 -77 -6 -92 2 -64 35 19 22 22 23 15 3z m-754 -376 c0 -16
-26 -39 -35 -31 -5 4 -5 -2 -1 -12 5 -15 4 -17 -7 -8 -8 7 -16 9 -20 6 -3 -3
-15 -1 -26 6 -14 7 -21 7 -21 0 0 -5 -7 -10 -16 -10 -14 0 -14 3 -4 15 11 13
10 14 -4 9 -9 -3 -16 -1 -16 5 0 20 28 23 61 7 40 -20 38 -20 32 4 -5 17 0 20
26 20 17 0 31 -5 31 -11z"/>
<path d="M1147 3005 c3 -60 9 -118 14 -130 9 -22 2 96 -12 185 -5 38 -6 22 -2
-55z"/>
<path d="M371 3078 c7 -13 24 -41 37 -63 14 -22 32 -51 39 -65 7 -14 13 -18
13 -10 0 8 -16 39 -35 69 -19 30 -32 58 -29 62 2 4 -5 13 -16 19 -20 11 -21
10 -9 -12z"/>
<path d="M4052 3083 c-10 -4 -10 -7 2 -17 8 -6 17 -26 19 -43 4 -28 2 -33 -14
-33 -10 0 -19 4 -19 8 0 4 -16 6 -36 4 -20 -3 -31 -8 -25 -12 9 -5 9 -37 1
-130 -8 -96 -8 -126 2 -138 11 -13 9 -14 -12 -7 -14 4 -30 15 -37 25 -10 14
-19 15 -62 7 l-50 -11 29 -18 c17 -10 30 -21 30 -25 -1 -15 -45 -40 -81 -47
-21 -3 -48 -15 -62 -26 -14 -11 -30 -20 -36 -20 -6 0 -11 -7 -11 -15 0 -8 -6
-12 -12 -10 -7 3 -29 -9 -48 -26 -19 -17 -29 -28 -21 -24 9 5 8 0 -3 -18 -12
-18 -14 -26 -5 -29 7 -2 20 -29 30 -59 10 -29 18 -45 19 -34 1 19 1 19 12 1 6
-10 26 -32 44 -48 20 -18 31 -35 27 -42 -4 -6 -9 -22 -11 -35 -2 -18 1 -22 13
-17 9 3 21 6 26 6 13 0 11 16 -8 58 -9 20 -17 44 -17 52 -1 20 -67 118 -85
125 -15 6 -7 -7 33 -52 11 -13 17 -25 14 -28 -3 -3 -22 15 -42 40 l-38 45 34
31 c18 16 59 47 91 67 47 31 65 37 95 33 20 -2 31 -6 24 -8 -10 -4 -10 -8 -1
-19 13 -16 159 -20 174 -5 15 14 138 23 155 11 11 -7 6 -10 -22 -10 -28 0 -38
-4 -38 -16 0 -11 5 -14 18 -9 30 12 35 10 37 -12 2 -30 -20 -36 -57 -17 -17 9
-41 13 -53 10 -13 -3 -27 -1 -30 4 -4 6 -11 8 -16 5 -5 -4 -9 -1 -9 4 0 14
-43 8 -48 -7 -2 -6 9 -10 28 -10 17 1 36 -4 42 -10 8 -8 17 -8 30 -1 29 16 33
4 9 -23 -12 -12 -17 -24 -11 -26 14 -5 13 -18 -2 -20 -7 -1 -27 -3 -44 -5 -28
-3 -30 -1 -21 15 6 9 20 19 32 21 11 3 5 4 -14 4 -24 -1 -35 -7 -39 -19 -4
-15 -16 -18 -82 -18 -91 0 -110 5 -110 31 0 25 -17 24 -25 -1 -11 -34 -21 -22
-17 20 2 22 0 40 -6 40 -5 0 -9 -12 -9 -26 0 -15 -6 -30 -12 -34 -9 -5 -9 -13
1 -34 11 -25 16 -27 49 -22 24 4 40 2 45 -5 8 -14 219 -4 260 11 33 13 104 13
104 0 0 -5 7 -10 15 -10 8 0 15 5 15 10 0 6 8 10 18 10 15 0 15 -2 2 -10 -10
-7 14 -9 80 -6 147 7 190 15 190 35 0 11 -9 17 -27 19 -16 1 -30 7 -31 12 -5
14 -22 2 -22 -15 0 -7 8 -15 18 -18 9 -2 0 -4 -21 -3 -31 0 -36 3 -31 18 3 10
1 18 -4 18 -5 0 -12 -9 -15 -20 -4 -17 -11 -19 -38 -13 -27 5 -31 4 -26 -10 5
-13 1 -17 -21 -16 -23 0 -24 2 -7 8 15 6 12 9 -19 14 -21 3 -51 3 -67 0 -24
-4 -29 -2 -29 13 0 16 2 17 10 4 8 -12 10 -11 10 7 0 12 8 27 18 32 15 9 15
12 2 22 -11 8 -12 12 -2 16 6 2 12 10 12 17 0 15 99 46 150 46 31 0 38 3 34
15 -6 16 -25 16 -36 0 -5 -6 -8 -5 -8 3 0 9 -5 10 -19 2 -27 -14 -31 -13 -31
11 0 18 4 20 30 14 19 -4 37 -2 46 6 12 10 18 8 34 -9 24 -26 27 -64 5 -56 -8
4 -15 1 -15 -5 0 -7 20 -11 50 -11 l50 0 -1 43 -1 42 -10 -32 c-13 -39 -27
-44 -20 -8 4 21 1 24 -13 19 -13 -5 -16 -3 -13 7 2 8 17 15 32 17 20 3 26 8
22 19 -3 8 -6 16 -6 19 0 2 -10 0 -23 -5 -13 -5 -35 -7 -50 -4 -15 3 -27 1
-27 -5 0 -5 -8 -9 -17 -8 -10 0 -17 -5 -15 -11 1 -7 0 -13 -3 -13 -18 0 -82
86 -72 96 3 4 34 8 69 11 35 3 78 8 96 13 31 8 32 7 33 -23 l1 -32 8 30 c9 34
11 77 3 58 -2 -7 -22 -13 -44 -13 -37 0 -38 1 -35 30 2 17 -1 30 -5 30 -5 0
-9 -7 -9 -15 0 -11 -11 -15 -40 -15 -22 0 -40 -4 -40 -9 0 -5 19 -7 41 -4 33
5 41 3 37 -8 -3 -9 -23 -15 -57 -17 -33 -2 -49 -7 -45 -14 4 -7 -2 -8 -17 -3
-13 4 -26 7 -29 7 -22 0 -30 -3 -25 -11 3 -6 -16 -9 -47 -7 -56 3 -78 -5 -114
-41 -25 -27 -55 -33 -34 -8 11 13 8 15 -17 15 l-29 0 8 93 c12 130 14 139 41
135 12 -1 28 1 35 5 8 6 12 0 12 -22 0 -26 -4 -31 -25 -31 -26 0 -33 -14 -13
-26 6 -4 14 -2 16 4 2 7 8 12 13 12 6 0 7 -5 3 -12 -4 -6 -3 -8 3 -5 16 10 26
179 11 189 -14 9 -17 9 -36 1z m220 -334 c-2 -17 2 -42 9 -56 12 -22 11 -27
-4 -38 -9 -7 -17 -17 -17 -22 0 -5 -11 -15 -25 -21 -21 -10 -27 -8 -39 9 -10
14 -16 17 -21 9 -6 -9 -10 -9 -16 1 -6 10 -9 11 -9 2 0 -7 -4 -13 -9 -13 -4 0
-6 12 -3 26 5 26 4 26 -42 23 -32 -3 -46 0 -46 8 0 9 16 13 49 13 28 0 53 5
56 11 9 13 -4 27 -13 14 -4 -6 -13 -11 -21 -13 -12 -3 -12 0 -2 11 9 12 9 16
-1 20 -7 3 6 6 30 6 29 1 48 -5 62 -19 18 -18 20 -19 20 -2 0 17 29 62 41 62
3 0 4 -14 1 -31z m-247 -73 c15 -14 33 -22 41 -19 8 3 14 0 14 -6 0 -7 10 -9
28 -5 24 7 26 6 13 -9 -10 -12 -18 -14 -31 -7 -13 7 -21 7 -25 0 -3 -5 -15
-10 -25 -10 -10 0 -20 -5 -22 -12 -6 -18 -59 0 -57 20 3 31 -1 43 -11 37 -5
-3 -10 -17 -10 -29 0 -30 -30 -58 -31 -30 0 11 -3 14 -6 6 -9 -22 -23 -2 -23
34 0 32 2 34 34 34 19 0 38 5 41 10 11 17 43 11 70 -14z m97 -178 c-6 -6 -15
-8 -19 -4 -4 4 -1 11 7 16 19 12 27 3 12 -12z m-392 -130 c0 -6 -7 -5 -15 2
-8 7 -15 17 -15 22 0 6 7 5 15 -2 8 -7 15 -17 15 -22z"/>
<path d="M4224 2681 c3 -5 -1 -11 -9 -15 -8 -3 -15 -10 -15 -16 0 -6 11 -3 24
7 23 17 25 33 5 33 -6 0 -8 -4 -5 -9z"/>
<path d="M3421 3053 c-1 -7 -13 -13 -27 -13 -19 0 -25 -4 -22 -17 2 -11 11
-17 23 -15 19 2 19 2 1 -9 -15 -9 -16 -13 -5 -20 25 -15 39 -10 39 16 0 14 5
25 11 25 8 0 10 -16 7 -47 -3 -27 -3 -42 -1 -35 3 7 13 17 23 22 17 9 18 6 15
-28 -3 -32 -2 -35 10 -19 7 9 15 35 19 55 5 36 8 38 36 34 58 -8 29 6 -44 23
-41 9 -77 21 -80 28 -3 9 -5 9 -5 0z"/>
<path d="M3980 3051 c0 -12 39 -21 45 -11 3 4 -2 11 -11 14 -22 8 -34 7 -34
-3z"/>
<path d="M375 3005 c15 -27 32 -54 37 -60 16 -15 -28 67 -47 90 -9 11 -5 -2
10 -30z"/>
<path d="M1246 3017 c7 -21 44 -44 44 -27 0 5 -5 10 -11 10 -7 0 -18 8 -25 18
-13 16 -14 16 -8 -1z"/>
<path d="M3691 3008 c-1 -16 -5 -28 -10 -28 -5 0 -7 -35 -5 -77 3 -54 0 -79
-9 -85 -9 -6 -9 -8 0 -8 7 0 10 -7 7 -15 -4 -11 -19 -15 -50 -13 -24 0 -47 -2
-51 -5 -3 -4 14 -7 40 -7 25 0 52 -3 60 -6 12 -4 16 15 22 119 4 69 5 131 2
139 -3 7 -6 1 -6 -14z"/>
<path d="M2357 2997 c-3 -9 1 -18 10 -21 23 -9 29 2 11 20 -13 14 -16 14 -21
1z"/>
<path d="M1797 2993 c-3 -4 -5 -43 -4 -85 0 -57 4 -78 14 -78 10 0 12 19 9 81
-4 79 -9 99 -19 82z"/>
<path d="M2524 2970 c3 -14 6 -29 6 -33 0 -5 5 -5 10 -2 10 6 50 -34 52 -52 0
-4 9 -14 20 -21 10 -7 15 -18 12 -24 -4 -6 -3 -8 3 -5 6 4 18 -2 28 -13 17
-19 17 -20 0 -26 -10 -4 -37 -1 -59 7 -35 12 -42 19 -46 49 -5 33 -6 33 -12
10 -5 -15 -2 -33 7 -47 20 -31 19 -39 -3 -19 -14 12 -33 15 -76 13 -52 -3 -61
-1 -83 22 l-25 26 25 -40 24 -40 84 -2 c189 -4 428 -6 672 -5 233 1 257 3 257
18 0 12 -6 15 -25 12 -26 -5 -26 -2 -8 65 2 9 0 17 -6 17 -6 0 -11 -15 -11
-32 0 -18 -4 -38 -8 -45 -8 -12 -130 -11 -315 2 -73 5 -93 3 -114 -10 -14 -10
-22 -12 -19 -6 9 14 -167 15 -194 1 -22 -12 -29 -5 -118 105 -31 39 -62 77
-70 85 -13 13 -14 12 -8 -10z"/>
<path d="M1830 2941 c0 -5 7 -14 15 -21 16 -14 18 -10 9 14 -6 17 -24 22 -24
7z"/>
<path d="M1873 2932 c11 -11 25 -18 33 -15 10 4 14 -3 14 -25 0 -16 6 -35 14
-41 12 -10 13 -8 9 9 -4 13 0 26 8 31 10 6 10 9 2 9 -7 0 -13 9 -13 20 0 12
-7 20 -17 20 -10 0 -29 3 -43 7 -25 6 -25 6 -7 -15z"/>
<path d="M3370 2940 c0 -5 9 -10 20 -10 11 0 20 -6 20 -12 0 -9 4 -8 10 2 16
24 12 30 -20 30 -16 0 -30 -4 -30 -10z"/>
<path d="M1320 2909 c18 -34 21 -36 17 -9 -2 13 -9 26 -16 28 -10 3 -10 0 -1
-19z"/>
<path d="M3518 2855 c-4 -44 -5 -82 -2 -84 11 -11 15 13 12 85 l-3 79 -7 -80z"/>
<path d="M3441 2866 c0 -31 3 -56 9 -56 12 0 13 80 1 98 -5 9 -9 -7 -10 -42z"/>
<path d="M4246 2870 c2 -63 14 -80 14 -19 0 25 5 50 12 57 9 9 8 12 -7 12 -17
0 -20 -7 -19 -50z"/>
<path d="M3915 2867 c-8 -28 -13 -97 -6 -97 4 0 16 7 27 15 17 13 17 14 2 15
-13 0 -18 8 -18 26 0 19 4 25 15 20 8 -3 15 -1 15 4 0 6 1 13 3 17 1 3 -6 7
-16 9 -10 1 -20 -3 -22 -9z"/>
<path d="M3842 2837 c-6 -16 -8 -25 -2 -22 5 3 10 1 10 -4 0 -6 -18 -11 -40
-11 -36 0 -40 -2 -40 -25 0 -14 2 -25 4 -25 2 0 12 -3 21 -6 17 -7 18 15 0 28
-6 4 -2 8 8 8 9 0 17 -5 17 -11 0 -6 5 -7 13 -2 6 4 22 6 35 4 12 -1 22 2 22
8 0 6 -6 11 -14 11 -10 0 -16 13 -18 37 l-3 38 -13 -28z"/>
<path d="M4026 2835 c7 -17 24 -20 24 -4 0 6 7 9 15 5 8 -3 15 -1 15 4 0 6
-13 10 -30 10 -22 0 -28 -4 -24 -15z"/>
<path d="M4020 2771 c0 -17 18 -21 24 -6 3 9 0 15 -9 15 -8 0 -15 -4 -15 -9z"/>
<path d="M4390 2753 c0 -8 -14 -13 -35 -13 -19 0 -35 -5 -35 -10 0 -11 78 -11
85 0 2 3 0 12 -6 20 -6 10 -9 11 -9 3z"/>
<path d="M3390 2729 c-177 -19 -230 -38 -472 -175 -43 -24 -82 -44 -88 -44 -5
0 -10 -1 -11 -2 -1 -2 -4 -104 -8 -227 l-7 -224 -26 -22 c-16 -14 -71 -33
-154 -54 -136 -34 -154 -43 -154 -71 0 -23 356 -367 408 -395 31 -17 60 -20
193 -23 l157 -4 77 -89 c42 -49 81 -89 86 -89 6 0 -32 48 -83 108 -52 59 -103
123 -115 142 -50 81 -79 252 -62 364 l11 74 117 32 c64 18 175 47 246 66 176
46 180 47 180 63 0 22 23 25 28 4 3 -12 5 -13 6 -3 2 36 -14 43 -63 27 -39
-14 -46 -14 -46 -1 0 8 -4 14 -10 14 -5 0 -10 -13 -10 -29 0 -35 -10 -43 -60
-46 -21 -2 -48 -8 -60 -15 -12 -6 -23 -10 -24 -8 -38 51 -49 114 -22 124 7 3
49 1 93 -3 65 -7 80 -6 76 4 -3 7 -15 13 -27 13 -11 1 -47 2 -78 5 -73 4 -97
-13 -98 -70 -1 -22 2 -52 6 -67 4 -18 2 -26 -8 -25 -43 2 -89 -4 -84 -11 2 -4
-3 -8 -12 -9 -9 -1 -30 -4 -47 -7 -24 -5 -26 -4 -10 3 24 11 3 14 -33 4 -18
-4 -21 -8 -10 -15 8 -6 5 -7 -12 -2 -14 4 -26 11 -28 15 -7 18 -20 8 -15 -11
10 -37 -24 -22 -91 41 -61 56 -64 62 -55 87 25 67 84 93 162 74 62 -16 224
-27 212 -14 -10 9 -52 15 -232 28 l-83 7 -40 -41 c-52 -51 -52 -78 0 -133 41
-44 44 -61 10 -52 -11 3 -35 -2 -54 -11 -42 -20 -45 -20 -45 2 0 36 -14 117
-21 127 -34 43 -62 259 -39 301 12 24 96 77 198 127 49 24 66 27 164 27 84 0
107 -3 101 -12 -6 -10 -4 -10 7 0 7 6 27 12 44 13 16 1 41 4 55 9 14 4 -31 6
-100 4 -80 -2 -118 0 -105 6 16 7 11 9 -24 9 -24 1 -42 3 -39 6 11 11 143 34
148 25 3 -5 12 -8 20 -8 8 1 51 0 96 0 85 -2 124 -19 124 -55 0 -13 5 -15 24
-7 16 6 28 5 36 -3 8 -8 8 -5 -1 11 -8 12 -24 22 -36 22 -12 0 -25 5 -28 10
-4 6 6 10 23 10 17 0 32 -6 36 -15 5 -13 36 -22 36 -11 0 14 -21 58 -26 53 -3
-3 -19 -1 -35 3 -20 6 -29 5 -29 -3 0 -8 -3 -9 -8 -1 -4 6 -26 10 -49 9 -24
-1 -43 3 -43 7 0 13 102 16 139 4 16 -6 21 -5 17 2 -4 7 6 10 31 7 21 -2 61
-6 90 -9 28 -3 68 -9 88 -15 31 -8 35 -8 25 4 -32 39 -245 55 -450 34z m50
-18 c0 -11 -29 -23 -40 -16 -5 3 -11 1 -15 -5 -9 -15 -25 -12 -25 4 0 9 13 16
33 19 17 2 35 5 40 5 4 1 7 -2 7 -7z m-565 -573 c8 -46 15 -99 15 -119 0 -24
5 -39 15 -43 8 -3 23 -19 34 -36 10 -18 21 -28 24 -23 4 6 -5 27 -19 47 -14
21 -24 39 -22 40 5 4 90 25 129 31 50 8 76 -20 60 -66 -32 -91 5 -360 57 -422
8 -9 13 -20 10 -23 -10 -9 -142 -11 -160 -2 -10 5 -18 15 -18 23 0 8 -7 15
-16 15 -11 0 -15 -6 -11 -20 4 -16 -3 -14 -50 16 -51 32 -82 38 -66 11 3 -7
-4 -3 -16 8 -12 11 -18 21 -12 23 19 6 12 22 -10 22 -12 0 -45 24 -80 59 -32
32 -60 56 -63 54 -2 -2 -6 3 -10 12 -4 11 -2 14 7 9 9 -6 9 -5 0 8 -7 8 -11
17 -8 20 3 3 -10 20 -28 39 -44 46 -52 67 -24 67 12 1 75 5 139 10 120 9 158
23 137 48 -8 10 -17 9 -44 -7 -39 -23 -203 -37 -300 -24 -59 7 -60 14 -5 29
19 6 21 5 10 -3 -13 -9 -13 -11 1 -11 34 0 175 33 208 49 61 29 76 61 76 159
0 48 -4 98 -9 112 l-8 25 21 -27 c14 -17 27 -57 36 -110z m-305 -269 c0 7 5 9
11 5 8 -4 7 -9 -2 -15 -15 -9 -9 -19 13 -23 19 -2 38 -16 38 -27 0 -20 -26 -7
-67 33 -45 44 -61 79 -18 38 14 -13 25 -18 25 -11z m83 -95 c-4 -10 -9 -12
-15 -6 -12 12 -1 35 12 27 5 -3 6 -13 3 -21z"/>
<path d="M3070 1940 c0 -5 0 -13 1 -16 0 -4 -5 -11 -13 -16 -9 -7 -8 -8 7 -6
21 3 35 48 16 48 -6 0 -11 -4 -11 -10z"/>
<path d="M2986 1909 c-14 -11 -26 -25 -26 -30 0 -11 50 11 72 34 17 16 17 17
-1 17 -10 0 -30 -9 -45 -21z"/>
<path d="M2917 1863 c-13 -12 -7 -71 8 -83 13 -11 15 -6 15 39 0 47 -7 61 -23
44z"/>
<path d="M2960 1836 c0 -21 5 -26 26 -26 25 0 26 1 12 22 -22 32 -38 34 -38 4z"/>
<path d="M3050 1845 c0 -8 5 -15 10 -15 6 0 10 7 10 15 0 8 -4 15 -10 15 -5 0
-10 -7 -10 -15z"/>
<path d="M3060 1793 c-45 -7 -54 -13 -43 -24 7 -7 17 -8 25 -3 7 5 21 7 31 6
10 -2 17 3 17 12 0 9 -1 15 -2 15 -2 -1 -14 -4 -28 -6z"/>
<path d="M2960 1763 c0 -20 19 -54 21 -38 0 6 2 20 5 33 3 15 -1 22 -11 22 -8
0 -15 -8 -15 -17z"/>
<path d="M3000 1673 c1 -24 35 -46 88 -56 49 -10 30 9 -23 22 -28 7 -45 17
-45 26 0 8 -4 15 -10 15 -5 0 -10 -3 -10 -7z"/>
<path d="M3040 1587 c0 -12 24 -14 75 -7 15 2 13 4 -10 10 -47 12 -65 11 -65
-3z"/>
<path d="M1470 2699 c-89 -9 -275 -47 -267 -55 3 -3 31 2 63 10 111 28 249 39
454 37 219 -1 311 -9 317 -27 3 -8 -9 -9 -39 -3 -24 5 -140 10 -258 13 l-215
4 175 -8 c96 -4 208 -11 247 -15 l73 -8 7 -36 7 -36 6 30 c3 17 10 -40 14
-125 7 -148 22 -298 25 -255 2 30 38 58 67 51 14 -4 24 -2 24 4 0 6 4 9 9 5 5
-3 13 -1 16 5 5 8 12 7 23 -2 10 -9 16 -10 19 -2 4 11 69 11 80 1 19 -19 -63
-97 -87 -82 -4 3 -10 -2 -14 -10 -3 -8 -17 -15 -31 -15 -14 0 -25 -4 -25 -10
0 -5 -15 -10 -32 -10 -25 0 -29 3 -18 10 12 8 11 10 -7 10 -18 0 -23 -6 -23
-25 0 -22 -4 -24 -32 -21 -18 2 -41 4 -50 5 -10 0 -24 13 -32 28 l-14 28 -11
-43 -12 -42 -317 2 c-260 1 -293 3 -182 9 74 3 215 7 313 8 110 1 177 5 177
11 0 13 17 11 -160 16 -85 2 -166 7 -180 11 -14 3 -29 5 -34 4 -5 -1 -6 5 -2
14 3 9 2 13 -4 10 -6 -3 -10 -1 -10 4 0 6 -4 11 -10 11 -5 0 -10 -9 -10 -20 0
-11 5 -20 11 -20 5 0 7 -5 4 -10 -4 -6 -11 -7 -17 -4 -6 4 -14 1 -18 -7 -7
-10 -16 -10 -49 0 -23 6 -41 15 -41 19 -1 4 16 91 36 193 l37 186 115 6 c64 4
178 4 255 0 l140 -6 -7 -91 c-4 -50 -9 -102 -12 -116 l-4 -25 10 25 c6 14 14
69 17 123 6 89 8 98 25 94 10 -3 20 -1 23 3 10 17 -94 24 -366 24 l-277 0 9
24 c5 13 14 32 19 43 6 10 7 19 2 19 -15 0 -40 -33 -47 -63 -8 -29 -7 -29
-123 -47 -87 -12 -197 -49 -261 -87 -67 -39 -153 -104 -147 -110 3 -4 2 -11
-3 -17 -4 -6 -11 -19 -14 -29 -5 -13 -3 -16 6 -10 6 4 51 34 99 66 110 73 186
107 313 142 55 15 108 31 118 37 10 5 21 8 23 6 2 -3 -5 -36 -15 -74 -19 -67
-53 -229 -66 -307 -5 -31 -9 -36 -20 -27 -9 7 -12 29 -10 69 3 63 40 220 61
263 16 32 17 38 5 38 -4 0 -18 -36 -31 -80 -14 -48 -28 -80 -36 -80 -7 0 -34
-29 -60 -65 -49 -70 -56 -102 -7 -40 15 20 35 47 45 58 9 12 19 20 21 17 5 -5
-32 -181 -39 -189 -3 -3 -9 0 -15 6 -7 7 -5 14 7 23 14 13 12 15 -23 25 -21 6
-47 8 -58 4 -11 -4 -36 -12 -55 -17 l-35 -10 40 -1 39 -1 -23 -16 c-22 -16
-25 -16 -52 0 -42 25 -209 17 -209 -10 0 -9 -7 -14 -17 -12 -11 2 -17 11 -15
22 2 11 -4 20 -17 23 -23 6 -21 27 9 121 19 58 15 64 -20 27 -12 -13 -27 -22
-32 -19 -4 3 -19 -8 -33 -24 -16 -19 -39 -32 -62 -37 -52 -9 -72 -22 -83 -51
-14 -36 -20 -123 -9 -129 5 -4 9 -3 9 2 0 4 28 9 63 11 l63 3 -4 -41 c-3 -33
-1 -40 13 -40 22 0 44 28 45 57 0 23 -9 21 205 36 39 3 39 3 15 14 -20 9 9 12
143 12 110 1 166 -2 162 -9 -4 -7 136 -10 412 -10 371 1 424 3 468 18 71 25
441 297 465 342 29 54 3 80 -107 104 -88 20 -391 66 -431 66 -23 0 -31 5 -36
24 -8 31 -16 34 -161 46 -139 11 -304 11 -425 -1z m745 -114 c49 -8 110 -17
135 -20 61 -9 178 -33 218 -46 23 -8 32 -16 32 -32 -1 -25 -22 -57 -38 -57 -6
0 -12 -3 -14 -7 -6 -14 -67 -53 -82 -53 -8 0 -18 -5 -22 -12 -5 -7 -3 -8 5 -3
7 4 5 -5 -5 -20 -17 -27 -20 -27 -88 -22 -68 5 -207 -5 -252 -19 -27 -7 -30
10 -40 198 l-6 127 33 -9 c18 -5 74 -16 124 -25z m-765 -33 c0 -5 -18 -88 -39
-185 -22 -97 -37 -186 -34 -199 4 -18 3 -20 -6 -8 -6 8 -11 11 -11 6 0 -5 -6
-3 -13 3 -8 6 -17 8 -20 4 -4 -3 -7 1 -7 10 0 19 46 246 60 292 4 17 11 42 14
58 5 20 12 27 31 27 14 0 25 -4 25 -8z m-674 -296 c-2 -11 -8 -43 -12 -71 -3
-27 -10 -58 -15 -67 -6 -11 -5 -18 4 -21 6 -3 2 -6 -10 -6 -28 -1 -35 11 -25
40 6 15 4 32 -5 48 -18 36 -16 45 10 56 12 6 23 20 25 32 2 15 8 20 18 16 10
-4 14 -14 10 -27z m-104 -51 c8 -19 8 -28 -2 -40 -7 -8 -10 -18 -6 -22 3 -3 6
-1 6 5 0 7 5 12 11 12 6 0 9 -12 7 -27 -4 -34 -33 -43 -41 -13 -6 25 -34 27
-40 3 -3 -10 -5 3 -6 29 -2 70 46 107 71 53z m125 -79 c4 -8 26 -16 48 -19 33
-3 30 -4 -17 -5 -52 -2 -58 0 -58 18 0 23 15 26 27 6z"/>
<path d="M2811 2676 c-18 -21 -41 -103 -40 -140 0 -17 3 -25 6 -18 4 10 8 9
17 -3 10 -13 11 -9 8 22 -1 21 4 63 12 93 16 60 15 68 -3 46z"/>
<path d="M3664 2652 c3 -5 17 -12 32 -15 30 -5 20 8 -15 18 -15 4 -21 3 -17
-3z"/>
<path d="M1240 2617 c-27 -6 -37 -12 -25 -14 11 -2 45 3 75 11 39 10 46 14 25
14 -16 0 -50 -5 -75 -11z"/>
<path d="M3420 2610 c-21 -7 -18 -8 19 -9 33 -1 52 -7 71 -26 24 -23 26 -23
26 -5 0 11 -4 20 -8 20 -4 0 -8 7 -8 15 0 17 -55 19 -100 5z"/>
<path d="M3352 2594 c-11 -12 -10 -15 5 -21 9 -4 26 -17 38 -29 13 -15 33 -24
55 -25 51 -2 64 0 56 8 -3 4 -23 6 -44 5 -32 -2 -41 2 -62 30 -14 18 -24 36
-22 41 4 12 -12 7 -26 -9z"/>
<path d="M570 2583 c0 -16 2 -16 11 -3 8 11 9 8 4 -14 -5 -25 -4 -28 8 -18 8
7 18 8 23 4 4 -4 2 2 -6 12 -8 11 -10 17 -3 13 6 -4 14 -3 17 2 3 5 -4 11 -17
15 -33 9 -37 8 -37 -11z"/>
<path d="M1054 2560 c-111 -57 -259 -173 -286 -224 -6 -12 25 13 69 54 73 67
201 155 275 187 16 7 28 15 28 18 0 9 -7 6 -86 -35z"/>
<path d="M4372 2568 c18 -27 46 -35 62 -17 8 9 7 11 -5 6 -9 -3 -20 3 -27 14
-7 10 -19 19 -28 19 -15 0 -15 -2 -2 -22z"/>
<path d="M712 2570 c3 -8 13 -14 24 -13 10 1 26 -3 36 -8 12 -6 18 -6 18 0 0
11 -39 25 -47 17 -4 -3 -13 0 -21 7 -13 10 -14 9 -10 -3z"/>
<path d="M3433 2573 c9 -2 25 -2 35 0 9 3 1 5 -18 5 -19 0 -27 -2 -17 -5z"/>
<path d="M4310 2569 c0 -5 -5 -7 -11 -4 -14 9 -79 -4 -79 -15 0 -11 99 -14
124 -4 8 3 12 12 9 20 -6 16 -43 19 -43 3z"/>
<path d="M3850 2560 c0 -6 26 -10 57 -10 31 0 54 3 51 6 -11 10 -108 14 -108
4z"/>
<path d="M3760 2556 c0 -9 40 -13 46 -5 3 5 -6 9 -20 9 -14 0 -26 -2 -26 -4z"/>
<path d="M651 2542 c-1 -7 -5 -10 -11 -7 -6 4 -9 -9 -9 -32 1 -28 3 -31 6 -13
3 14 10 28 15 31 6 4 8 13 5 20 -4 11 -6 11 -6 1z"/>
<path d="M4450 2540 c-12 -8 -9 -10 13 -10 15 0 27 5 27 10 0 13 -20 13 -40 0z"/>
<path d="M4340 2525 c0 -9 6 -12 15 -9 8 4 15 10 15 15 0 5 -7 9 -15 9 -8 0
-15 -7 -15 -15z"/>
<path d="M389 2484 c-15 -25 -22 -27 -97 -30 -62 -2 -85 0 -96 11 -13 13 -15
13 -21 -4 -7 -22 -55 -24 -55 -3 0 7 -4 11 -9 8 -5 -3 -7 -25 -4 -49 l5 -42
-21 25 c-11 14 -21 19 -21 12 0 -8 16 -33 35 -57 l36 -43 23 21 22 22 -30 33
c-16 17 -26 32 -21 32 82 0 271 12 275 18 3 4 4 22 1 40 l-6 33 -16 -27z"/>
<path d="M583 2450 c1 -11 5 -20 9 -20 4 0 8 9 8 20 0 11 -4 20 -9 20 -6 0 -9
-9 -8 -20z"/>
<path d="M1280 2460 c0 -7 -7 -10 -17 -6 -15 5 -15 4 1 -9 11 -8 25 -15 30
-14 6 0 5 3 -3 6 -10 4 -10 7 -1 13 9 5 9 9 1 14 -6 4 -11 2 -11 -4z"/>
<path d="M4400 2395 c-42 -13 -100 -58 -89 -69 3 -3 31 8 63 24 32 16 73 32
92 36 19 3 34 10 34 15 0 13 -48 10 -100 -6z"/>
<path d="M3572 2370 c0 -19 2 -27 5 -17 2 9 2 25 0 35 -3 9 -5 1 -5 -18z"/>
<path d="M3786 2342 c16 -28 31 -47 35 -41 3 5 13 7 22 3 34 -12 16 6 -19 21
-21 8 -34 20 -31 27 2 7 10 12 16 11 6 -2 11 2 11 7 0 6 -6 10 -14 10 -8 0
-22 3 -32 7 -13 5 -11 -4 12 -45z"/>
<path d="M348 2343 c-60 -3 -90 -8 -98 -18 -7 -8 -27 -15 -44 -15 -20 0 -27
-3 -18 -9 8 -4 24 -7 38 -5 17 1 24 -3 25 -14 0 -13 2 -13 8 3 5 11 4 22 0 23
-5 2 -7 7 -5 11 3 4 31 4 63 0 32 -4 92 -7 133 -7 75 1 75 1 20 8 -30 4 -47 7
-37 8 9 1 17 7 17 12 0 6 -3 9 -7 8 -5 -1 -47 -4 -95 -5z"/>
<path d="M470 2340 c0 -5 22 -10 49 -10 30 0 51 -5 54 -12 2 -7 7 -10 11 -7 3
3 4 14 0 23 -5 12 -19 16 -60 16 -30 0 -54 -4 -54 -10z"/>
<path d="M1895 2328 c-27 -3 -95 -7 -150 -7 -89 -1 -102 -3 -113 -21 -12 -19
-10 -20 70 -20 46 0 112 5 148 10 42 6 66 6 71 -1 8 -13 32 16 27 33 -2 10
-16 11 -53 6z"/>
<path d="M4375 2310 c-22 -11 -46 -18 -53 -15 -15 5 -18 -3 -26 -67 -4 -37 -2
-48 9 -48 9 0 12 8 9 24 -2 14 0 28 6 31 5 3 10 15 10 25 0 13 5 18 16 13 8
-3 13 -12 10 -20 -4 -10 0 -13 17 -11 16 2 24 13 31 40 5 20 16 39 25 41 14 4
14 5 1 6 -9 0 -34 -8 -55 -19z"/>
<path d="M450 2290 c0 -11 40 -34 46 -27 3 2 2 11 -1 18 -6 16 -45 23 -45 9z"/>
<path d="M4470 2285 c0 -8 7 -15 15 -15 8 0 15 7 15 15 0 8 -7 15 -15 15 -8 0
-15 -7 -15 -15z"/>
<path d="M838 2254 l-17 -36 87 7 c89 7 147 24 86 25 -17 0 -47 6 -65 14 -71
29 -74 29 -91 -10z"/>
<path d="M101 2248 c-1 -16 4 -28 9 -28 12 0 12 8 0 35 -8 18 -9 17 -9 -7z"/>
<path d="M1565 2262 c-26 -6 -36 -23 -23 -39 14 -17 35 -16 42 2 3 8 11 14 17
13 6 -2 13 4 14 12 3 16 -15 20 -50 12z"/>
<path d="M140 2250 c-13 -8 -13 -11 3 -27 13 -13 17 -14 17 -3 0 11 3 11 12 2
15 -15 74 -16 83 -2 4 6 -10 10 -34 10 -46 0 -73 9 -65 21 7 11 3 11 -16 -1z"/>
<path d="M1976 2244 c-4 -10 -1 -14 6 -12 15 5 23 28 10 28 -5 0 -13 -7 -16
-16z"/>
<path d="M552 2233 c-6 -3 -10 -9 -6 -14 3 -5 0 -9 -5 -9 -6 0 -10 -3 -10 -7
1 -5 1 -20 0 -35 -1 -32 -32 -43 -154 -54 -85 -7 -93 -16 -20 -21 60 -5 65
-10 25 -25 -18 -7 -32 -16 -32 -20 0 -12 -28 -10 -50 4 -16 10 -24 10 -40 0
-28 -17 -70 -16 -70 3 0 8 -4 15 -10 15 -5 0 -10 -5 -10 -10 0 -6 -7 -10 -16
-8 -10 2 -19 -2 -21 -8 -5 -14 79 -23 189 -20 70 1 78 -1 78 -18 0 -10 -11
-31 -25 -48 -14 -16 -25 -38 -25 -48 0 -10 -10 -22 -22 -26 -18 -5 -20 -8 -7
-18 8 -6 13 -19 11 -28 -2 -10 1 -18 6 -18 5 0 12 17 15 38 4 20 19 55 35 77
30 43 75 147 47 111 -15 -19 -15 -19 -15 2 0 17 14 28 65 51 64 29 65 31 65
68 0 22 5 44 12 51 14 14 9 21 -10 15z"/>
<path d="M3796 2229 c3 -6 -3 -13 -15 -16 -19 -5 -29 -32 -15 -45 3 -3 21 -1
40 5 20 6 30 13 23 18 -6 4 -8 12 -5 18 11 18 24 13 28 -11 2 -14 6 -19 10
-12 11 17 -13 43 -45 48 -17 3 -25 1 -21 -5z"/>
<path d="M1811 2208 c-74 -13 -70 -15 27 -14 68 1 92 4 92 14 0 14 -41 14
-119 0z"/>
<path d="M112 2190 c2 -20 8 -24 26 -22 27 4 29 -14 2 -23 -11 -3 -20 -12 -20
-20 0 -9 -10 -12 -30 -10 -16 2 -30 0 -30 -5 0 -6 22 -10 49 -10 27 0 62 -5
77 -10 15 -6 47 -12 73 -14 25 -2 40 -2 33 1 -6 3 -10 9 -7 14 4 5 0 6 -7 4
-8 -3 -41 1 -73 9 -33 8 -54 15 -47 15 7 1 12 16 12 42 0 37 -2 40 -21 34 -14
-5 -25 -2 -31 6 -6 10 -8 7 -6 -11z"/>
<path d="M3880 2172 c0 -4 7 -18 16 -30 32 -45 34 -75 7 -103 -16 -17 -21 -29
-14 -33 6 -4 11 -1 12 6 0 7 4 4 9 -7 7 -17 9 -15 9 12 1 19 8 36 18 41 16 9
16 12 -1 36 -9 15 -14 31 -11 36 3 6 2 10 -4 10 -5 0 -13 9 -16 20 -6 19 -25
28 -25 12z"/>
<path d="M3739 2148 c-1 -7 -2 -19 -3 -27 0 -8 -7 -16 -15 -19 -10 -3 -11 2
-7 19 7 22 6 23 -5 4 -6 -11 -18 -25 -26 -32 -18 -14 -11 -41 12 -49 8 -3 22
1 30 10 9 9 31 16 48 16 24 0 28 -3 17 -10 -10 -6 -11 -10 -2 -10 6 0 12 -7
12 -15 0 -16 -29 -10 -42 9 -5 8 -8 8 -8 0 0 -7 11 -19 24 -27 21 -14 26 -15
37 -1 15 18 -2 61 -32 82 -10 7 -19 24 -19 38 0 24 -19 35 -21 12z"/>
<path d="M4328 2148 c-35 -12 -36 -30 -2 -26 22 3 27 -1 30 -26 8 -76 29 -70
40 12 6 50 6 52 -17 51 -13 0 -36 -5 -51 -11z"/>
<path d="M182 2145 c3 -4 23 -10 43 -15 26 -6 35 -5 32 3 -2 7 -21 13 -43 15
-21 2 -36 1 -32 -3z"/>
<path d="M4275 2085 c3 -43 0 -55 -11 -55 -33 0 -10 -29 39 -49 56 -23 155
-42 162 -32 9 16 -14 30 -61 36 -98 12 -109 18 -110 56 -1 25 -1 27 3 7 3 -22
12 -30 41 -38 46 -12 72 -13 72 -1 0 11 -35 21 -72 21 -28 0 -38 15 -16 22 12
4 -29 88 -43 88 -4 0 -6 -25 -4 -55z"/>
<path d="M4478 2086 c-10 -27 -17 -59 -17 -70 1 -17 2 -18 6 -3 2 9 9 17 14
17 6 0 8 4 5 9 -4 5 -1 11 5 13 6 2 9 21 7 43 l-3 40 -17 -49z"/>
<path d="M1143 2103 c26 -2 67 -2 90 0 23 2 2 3 -48 3 -49 0 -68 -1 -42 -3z"/>
<path d="M1260 2065 c-6 -15 -19 -39 -29 -54 -10 -14 -23 -40 -29 -58 -15 -45
2 -435 24 -538 16 -77 50 -162 60 -152 3 3 -3 22 -14 44 -38 75 -61 241 -64
468 -2 162 -1 172 22 210 39 67 52 96 46 102 -3 3 -10 -7 -16 -22z"/>
<path d="M2084 1934 l1 -159 -49 -149 -49 -150 -72 -76 c-82 -86 -108 -143
-120 -256 -7 -76 -12 -88 -35 -97 -13 -4 -12 -6 1 -6 26 -1 35 18 48 113 15
111 41 162 124 246 l64 65 53 160 52 160 -1 139 c-1 76 -5 145 -10 154 -5 9
-8 -49 -7 -144z"/>
<path d="M61 2073 c-1 -7 -10 -13 -20 -13 -11 0 -23 -5 -26 -10 -4 -7 3 -8 22
-4 35 8 36 10 30 26 -4 10 -6 10 -6 1z"/>
<path d="M810 2037 c0 -6 75 -57 84 -57 4 0 4 5 1 10 -7 11 -85 53 -85 47z"/>
<path d="M564 2011 c4 -5 0 -12 -6 -15 -7 -3 2 -3 21 0 18 3 40 7 47 8 35 5
22 16 -20 16 -26 0 -45 -4 -42 -9z"/>
<path d="M4492 1988 c-1 -20 -5 -45 -8 -55 -5 -14 -4 -15 5 -7 7 7 11 29 8 55
-3 42 -4 42 -5 7z"/>
<path d="M23 1997 c-32 -14 -29 -31 4 -22 34 8 39 13 27 24 -5 5 -19 4 -31 -2z"/>
<path d="M1066 1985 c-4 -11 2 -15 24 -15 20 0 30 5 30 15 0 9 -9 15 -24 15
-13 0 -26 -7 -30 -15z"/>
<path d="M1832 1970 c-32 -20 -72 -29 -42 -10 11 7 12 10 2 10 -8 0 -26 -13
-41 -29 -21 -22 -39 -31 -72 -34 l-44 -4 52 -1 c40 -2 54 2 62 16 8 14 28 18
103 22 l93 5 -22 23 c-28 27 -48 28 -91 2z"/>
<path d="M1155 1964 c9 -33 -19 -50 -59 -36 -18 7 -43 12 -55 12 -18 0 -22 4
-16 18 5 13 3 14 -6 5 -31 -31 38 -67 106 -56 38 6 53 32 35 60 -10 16 -10 16
-5 -3z"/>
<path d="M1973 1955 c0 -8 9 -17 19 -21 44 -14 2 -58 -50 -52 -30 3 -32 23 -2
23 10 0 22 4 26 8 4 4 -4 7 -19 7 -14 0 -29 -5 -32 -11 -4 -6 -35 -9 -73 -8
-37 1 -67 -2 -67 -7 -2 -27 184 -46 227 -23 24 13 24 67 1 85 -23 17 -30 17
-30 -1z"/>
<path d="M607 1953 c-4 -3 -6 -38 -6 -77 l2 -71 7 75 c8 79 7 84 -3 73z"/>
<path d="M3800 1940 c-19 -11 -30 -19 -25 -19 6 0 26 8 45 19 19 11 31 19 25
19 -5 0 -26 -8 -45 -19z"/>
<path d="M643 1943 c9 -2 25 -2 35 0 9 3 1 5 -18 5 -19 0 -27 -2 -17 -5z"/>
<path d="M3920 1922 c0 -11 4 -23 9 -27 6 -3 8 4 6 16 -6 30 -15 37 -15 11z"/>
<path d="M456 1915 c25 -19 40 -19 24 0 -7 8 -20 15 -28 15 -13 0 -12 -3 4
-15z"/>
<path d="M2140 1911 c0 -7 43 -11 132 -11 72 0 129 2 127 4 -2 2 -61 7 -131
11 -90 5 -128 4 -128 -4z"/>
<path d="M3671 1895 c-74 -27 -82 -35 -105 -93 -25 -67 -22 -84 16 -80 17 2
33 9 36 15 2 9 -5 11 -27 7 -36 -7 -38 0 -16 53 23 55 41 70 111 93 35 12 64
24 64 26 0 7 -13 4 -79 -21z"/>
<path d="M3894 1872 c4 -7 1 -12 -8 -12 -8 0 -18 -4 -21 -10 -9 -14 8 -12 30
3 14 11 15 16 5 22 -9 5 -11 4 -6 -3z"/>
<path d="M3922 1868 c5 -13 38 -20 38 -8 0 4 -9 10 -21 13 -12 3 -19 1 -17 -5z"/>
<path d="M390 1839 c-14 -26 -23 -119 -12 -119 5 0 17 9 26 19 28 31 73 46
101 33 33 -15 32 -32 -3 -32 -15 0 -38 -7 -50 -16 -12 -8 -22 -12 -22 -9 0 3
-10 0 -22 -7 -13 -7 -27 -11 -31 -10 -4 1 -17 -19 -29 -45 -48 -108 18 -264
145 -345 51 -32 55 -33 177 -35 69 -2 132 -4 140 -6 49 -12 76 -22 86 -32 7
-6 37 -20 68 -29 31 -10 56 -22 56 -27 0 -5 11 -9 25 -9 13 0 50 -12 82 -26
55 -24 78 -34 113 -48 8 -4 24 -12 35 -19 29 -18 89 -51 95 -52 13 -2 96 -49
101 -57 3 -5 10 -8 15 -7 11 3 44 -12 135 -57 36 -19 69 -31 73 -27 3 3 6 2 6
-4 0 -5 18 -15 40 -22 22 -6 40 -16 40 -22 0 -6 5 -7 10 -4 6 3 10 2 10 -2 0
-17 53 -12 85 7 30 18 33 19 39 4 4 -9 9 -14 13 -11 3 4 1 12 -4 19 -6 7 -9
21 -8 30 2 10 -2 16 -8 15 -31 -6 -51 298 -21 327 8 8 14 19 14 24 0 11 80 86
80 75 0 -4 4 -1 9 7 7 10 31 14 93 13 67 0 93 -5 138 -26 30 -14 48 -26 40
-26 -8 -1 -28 6 -43 14 -15 8 -25 10 -22 5 4 -6 2 -10 -4 -10 -5 0 -12 4 -16
10 -3 5 -12 7 -20 3 -26 -10 -16 -18 23 -19 21 0 61 -13 90 -27 40 -20 52 -23
52 -12 0 13 3 13 20 3 11 -7 18 -18 16 -25 -6 -15 20 -37 34 -28 6 4 9 1 8 -7
-2 -8 4 -12 15 -10 12 2 17 -2 15 -14 -2 -9 3 -19 11 -22 8 -3 11 0 7 7 -5 7
-1 9 8 5 9 -3 16 -10 16 -16 0 -5 5 -6 12 -2 6 4 8 3 5 -3 -4 -6 8 -25 26 -44
34 -35 71 -88 72 -102 0 -4 6 -11 14 -16 15 -10 54 -91 43 -91 -4 0 -2 -4 3
-8 21 -14 46 -157 44 -246 -2 -109 6 -120 104 -137 40 -7 80 -12 90 -11 9 0
17 -4 17 -9 0 -6 7 -6 18 -1 9 5 45 6 80 3 34 -4 62 -4 62 -1 0 4 37 12 83 19
45 7 88 17 94 23 7 6 19 8 28 5 8 -4 20 -1 27 6 7 7 27 19 45 26 18 7 35 22
38 32 4 10 11 18 18 16 6 -1 13 7 15 18 2 11 17 32 33 46 15 14 25 29 22 33
-4 4 0 4 10 0 10 -3 17 -1 17 5 0 6 7 11 15 11 8 0 15 4 15 10 0 5 12 13 26
16 14 4 36 16 48 28 23 22 39 33 94 66 17 11 32 24 32 30 0 5 6 10 13 10 7 0
24 13 37 30 14 16 30 29 37 30 6 0 14 9 18 19 3 11 16 21 28 23 12 2 20 5 18
8 -8 9 20 51 30 45 5 -4 9 3 9 14 0 12 7 21 15 21 17 0 55 56 55 80 -1 10 -7
7 -21 -10 -72 -87 -104 -120 -188 -193 -103 -91 -170 -138 -279 -199 -62 -34
-78 -49 -104 -96 -37 -65 -70 -82 -210 -113 -107 -23 -253 -27 -375 -9 l-82
12 1 112 c1 68 -3 122 -11 141 -7 17 -14 43 -16 60 -6 47 -74 169 -141 254
-79 100 -166 171 -274 223 -73 36 -95 42 -166 46 -98 5 -142 -7 -196 -56 -50
-45 -78 -100 -85 -168 -4 -41 -2 -60 11 -80 18 -27 13 -50 -5 -24 -8 11 -9 4
-5 -25 3 -22 6 -62 7 -90 1 -28 4 -39 6 -25 5 24 5 23 19 -9 19 -45 18 -51
-10 -51 -28 0 -304 126 -511 234 -77 40 -189 92 -250 115 -60 24 -181 72 -267
108 -145 59 -159 63 -179 50 -16 -12 -18 -17 -7 -23 7 -5 21 -9 30 -9 10 0 17
-4 15 -10 -1 -5 -9 -8 -17 -6 -8 2 -39 5 -69 7 -29 1 -59 8 -64 13 -8 8 -7 11
3 11 8 0 -8 13 -36 29 -56 33 -98 88 -116 155 -26 100 42 183 142 174 l49 -5
-27 50 c-59 109 -143 161 -172 106z m70 -41 c0 -5 -6 -8 -14 -5 -7 3 -19 0
-25 -6 -8 -8 -11 -8 -11 1 0 13 31 32 42 26 5 -3 8 -10 8 -16z"/>
<path d="M3780 1790 c-25 -10 -69 -24 -98 -31 -40 -9 -51 -16 -47 -27 3 -8 10
-45 15 -81 6 -36 13 -88 18 -116 4 -27 12 -50 17 -50 6 0 52 25 103 55 76 45
92 59 88 75 -3 11 -11 59 -17 108 -7 48 -18 87 -24 86 -5 -1 -30 -9 -55 -19z
m50 -33 c0 -4 0 -11 0 -16 0 -13 -40 -21 -40 -8 0 7 -8 -3 -17 -22 -13 -27
-14 -37 -4 -52 6 -11 9 -24 6 -29 -4 -6 -2 -10 3 -10 5 0 12 11 14 24 4 17 1
23 -9 19 -25 -10 -13 24 14 36 20 9 29 9 37 0 8 -9 7 -10 -6 -6 -12 4 -15 2
-11 -9 3 -8 11 -13 18 -10 8 3 13 -5 13 -20 0 -17 -13 -32 -49 -55 -27 -17
-49 -35 -49 -40 0 -4 -6 -6 -14 -3 -9 3 -13 -1 -13 -13 3 -35 -27 -18 -39 22
-18 62 -28 169 -16 161 6 -3 13 0 15 6 3 7 6 2 6 -12 1 -19 4 -21 10 -11 5 8
7 21 3 29 -3 10 0 13 9 10 8 -3 28 1 44 8 30 13 76 14 75 1z m-15 -173 c-34
-27 -55 -36 -55 -24 0 5 7 10 15 10 8 0 15 4 15 9 0 8 15 15 40 20 3 0 -4 -7
-15 -15z"/>
<path d="M3735 1685 c4 -17 8 -33 9 -36 0 -4 -3 -7 -9 -8 -5 0 -9 8 -9 19 1
11 -2 17 -7 15 -4 -3 -10 -1 -14 5 -7 11 -25 4 -25 -10 0 -5 7 -7 15 -4 11 5
15 -1 15 -20 0 -27 18 -34 37 -15 7 7 8 21 2 41 -11 41 -23 51 -14 13z"/>
<path d="M3690 1623 c0 -13 5 -23 10 -23 13 0 13 11 0 30 -8 12 -10 11 -10 -7z"/>
<path d="M3924 1780 c3 -14 6 -32 6 -40 1 -12 3 -11 11 3 7 13 6 23 -7 40
l-16 22 6 -25z"/>
<path d="M3438 1738 c6 -25 42 -23 42 1 0 14 -7 18 -23 17 -17 -1 -23 -6 -19
-18z"/>
<path d="M3400 1731 c0 -12 5 -21 10 -21 6 0 10 6 10 14 0 8 -4 18 -10 21 -5
3 -10 -3 -10 -14z"/>
<path d="M3271 1718 c-1 -16 4 -28 9 -28 6 0 10 3 10 8 0 4 20 6 45 4 35 -3
46 0 51 12 9 24 -6 34 -18 12 -8 -14 -12 -15 -18 -5 -10 15 -40 21 -40 8 0
-14 -28 -11 -33 4 -3 6 -6 0 -6 -15z"/>
<path d="M2426 1710 c-38 -12 -95 -66 -112 -107 -18 -42 -18 -114 1 -139 13
-17 13 -15 4 20 -14 53 -6 100 26 147 68 97 213 91 265 -12 24 -46 25 -77 4
-127 -33 -79 -107 -128 -178 -116 -27 5 -28 4 -12 -6 49 -32 148 18 193 96 75
130 -50 289 -191 244z"/>
<path d="M4017 1704 c-8 -8 1 -24 14 -24 5 0 9 7 9 15 0 15 -12 20 -23 9z"/>
<path d="M490 1665 c0 -12 41 -85 48 -85 4 0 15 14 25 31 19 35 36 34 17 -1
-14 -26 -6 -37 15 -20 12 10 15 10 15 -3 0 -16 -24 -40 -32 -32 -5 5 -2 -25 8
-72 2 -13 10 -20 17 -17 8 3 14 -6 15 -28 2 -18 7 -35 13 -38 6 -4 4 -12 -5
-19 -13 -11 -16 -7 -22 28 -9 56 -28 53 -22 -3 3 -24 1 -51 -4 -60 -6 -10 -5
-16 2 -16 5 0 10 7 10 16 0 9 7 14 18 13 34 -4 73 13 68 30 -2 9 -7 30 -11 47
-5 28 -30 48 -55 46 -3 0 -7 13 -8 29 -2 31 6 37 26 17 20 -20 25 -1 8 34 -8
18 -22 50 -30 71 -15 36 -16 37 -65 37 -28 0 -51 -2 -51 -5z"/>
<path d="M3972 1648 c-6 -6 -12 -17 -12 -23 0 -6 -11 -27 -25 -47 -16 -24 -20
-36 -11 -32 18 7 69 91 64 105 -2 6 -8 5 -16 -3z"/>
<path d="M440 1635 c0 -11 53 -85 58 -80 3 2 -7 23 -22 45 -24 37 -36 48 -36
35z"/>
<path d="M427 1603 c-10 -9 -9 -83 1 -83 4 0 8 20 9 45 2 47 1 49 -10 38z"/>
<path d="M4037 1593 c-2 -5 -7 -20 -11 -35 -3 -14 -27 -51 -52 -83 -25 -31
-43 -59 -40 -62 3 -4 6 -1 6 6 0 7 3 10 8 8 4 -3 13 1 20 9 7 8 11 14 8 14 -3
0 6 11 20 25 14 14 33 43 43 65 10 22 20 38 23 35 2 -3 5 2 5 10 0 15 -22 21
-30 8z"/>
<path d="M450 1551 c0 -24 5 -32 25 -37 40 -10 42 -1 8 34 l-33 34 0 -31z"/>
<path d="M3966 1552 c-17 -33 -104 -117 -167 -159 -98 -68 -270 -143 -327
-143 -24 -1 -25 -2 -9 -11 35 -21 204 48 339 137 71 48 172 149 181 183 7 29
0 26 -17 -7z"/>
<path d="M515 1550 c-3 -6 1 -13 10 -16 19 -8 30 0 20 15 -8 14 -22 14 -30 1z"/>
<path d="M522 1500 c-7 -11 -23 -20 -35 -20 -14 0 -24 -6 -24 -15 0 -11 7 -13
26 -8 40 9 71 22 71 28 0 4 -4 4 -9 0 -5 -3 -11 4 -13 15 l-3 21 -13 -21z"/>
<path d="M620 1506 c0 -2 7 -9 15 -16 12 -10 15 -10 15 4 0 9 -7 16 -15 16 -8
0 -15 -2 -15 -4z"/>
<path d="M2830 1483 c-60 -41 -258 -204 -290 -239 -22 -23 -9 -15 35 22 39 34
118 98 178 144 59 46 107 84 107 86 0 7 -5 4 -30 -13z"/>
<path d="M498 1447 l-46 -10 40 -34 c38 -31 77 -48 50 -21 -14 14 -16 32 -3
24 10 -6 32 39 24 48 -4 3 -9 5 -12 5 -3 -1 -27 -6 -53 -12z"/>
<path d="M805 1430 c-7 -11 93 -46 121 -42 22 2 184 -53 194 -66 3 -4 18 -13
33 -20 15 -7 26 -15 24 -20 -3 -4 5 -7 16 -8 12 0 31 -4 42 -9 45 -18 -33 32
-113 73 -54 28 -116 50 -175 63 -51 10 -102 24 -114 29 -13 5 -25 5 -28 0z"/>
<path d="M781 1406 c5 -4 500 -210 759 -315 93 -38 184 -72 202 -75 20 -4 10
3 -27 17 -33 13 -134 54 -225 92 -617 253 -726 296 -709 281z"/>
<path d="M3987 1315 c-60 -94 -235 -235 -407 -326 -155 -83 -280 -122 -425
-134 -44 -3 -115 -10 -158 -16 -70 -9 -137 -7 -237 7 -24 3 -31 2 -21 -5 57
-38 489 -6 642 47 113 39 233 101 354 181 107 71 232 187 260 241 13 25 19 30
26 19 5 -8 9 -9 9 -4 0 34 -18 30 -43 -10z"/>
<path d="M1265 1250 c3 -5 12 -10 20 -10 7 0 16 -7 19 -16 3 -9 12 -14 20 -11
7 3 18 1 23 -4 5 -5 19 -11 32 -14 12 -2 36 -11 53 -20 34 -17 52 -19 44 -7
-3 5 -38 21 -78 37 -40 15 -79 33 -86 38 -19 15 -55 20 -47 7z"/>
<path d="M2131 1227 c12 -12 28 -15 59 -11 25 3 39 1 36 -4 -3 -6 5 -12 19
-14 14 -3 25 -2 25 1 0 12 -56 32 -105 38 -46 6 -49 5 -34 -10z"/>
<path d="M2333 1133 c31 -31 57 -60 57 -65 0 -5 5 -6 10 -3 6 3 10 1 10 -4 0
-6 14 -30 30 -53 35 -48 39 -45 8 9 -52 89 -130 173 -159 173 -8 0 12 -25 44
-57z"/>
<path d="M2144 1166 c-3 -8 -11 -13 -17 -10 -7 2 -28 -9 -47 -26 l-35 -30 50
26 c108 55 226 1 323 -149 23 -34 51 -97 63 -139 23 -77 44 -108 32 -45 -27
141 -169 348 -249 363 -18 3 -34 9 -34 13 0 4 -7 8 -15 8 -8 0 -15 -4 -15 -8
0 -5 -11 -4 -25 1 -20 7 -27 6 -31 -4z"/>
<path d="M1496 1162 c-3 -4 4 -13 14 -20 11 -6 21 -8 24 -4 3 4 -4 13 -14 20
-11 6 -21 8 -24 4z"/>
<path d="M2165 1048 c6 -71 18 -113 27 -97 2 2 2 43 0 92 -3 70 -6 87 -19 87
-13 0 -14 -12 -8 -82z"/>
<path d="M4423 1103 c2 -12 6 -26 10 -29 11 -11 8 19 -3 36 -8 12 -9 10 -7 -7z"/>
<path d="M2251 1033 c-1 -42 -4 -79 -6 -82 -3 -2 3 -10 13 -17 15 -11 30 -10
83 4 35 9 65 17 67 18 7 4 -23 44 -32 44 -6 0 -5 -5 2 -12 7 -7 12 -16 12 -22
0 -6 -5 -5 -12 2 -16 16 -28 15 -28 -3 0 -12 -10 -15 -40 -13 l-40 3 0 48 c0
54 8 57 59 26 18 -11 35 -18 38 -16 5 5 -96 97 -107 97 -4 0 -8 -35 -9 -77z"/>
<path d="M1643 1085 c16 -9 31 -14 34 -11 3 3 15 -1 27 -9 11 -8 25 -15 31
-15 13 1 -46 33 -65 36 -8 1 -24 5 -35 8 -11 4 -7 0 8 -9z"/>
<path d="M2032 1093 c1 -4 -4 -19 -11 -32 -8 -14 -21 -57 -31 -95 -14 -61 -15
-73 -2 -85 10 -10 12 -28 9 -63 -3 -26 -1 -50 4 -53 5 -4 9 -13 9 -22 0 -17
46 -113 62 -128 6 -5 5 1 -2 14 -8 15 -8 21 -1 17 6 -4 22 1 34 11 25 19 24
29 -5 93 -9 19 -19 46 -23 60 -7 23 -6 24 9 11 10 -8 27 -33 38 -55 26 -53 24
-51 43 -32 9 9 21 14 26 11 15 -10 10 4 -9 23 -30 29 -162 113 -162 102 0 -5
4 -10 9 -10 4 0 21 -35 36 -77 15 -43 32 -83 37 -90 10 -13 3 -33 -12 -33 -12
0 -42 59 -63 120 -33 100 -29 226 9 287 9 14 10 24 4 28 -6 4 -9 3 -8 -2z"/>
<path d="M2084 1054 l-38 -46 57 -55 c31 -30 57 -59 57 -64 0 -5 5 -9 10 -9 6
0 10 -4 10 -10 0 -18 -28 -11 -81 20 -28 17 -56 29 -63 26 -8 -3 -7 -5 1 -5 7
-1 10 -7 8 -13 -6 -16 90 -82 105 -73 5 3 14 -5 19 -18 12 -32 28 -42 45 -28
17 14 45 4 42 -14 -1 -8 -14 -23 -28 -35 -15 -11 -32 -36 -39 -54 -7 -19 -23
-39 -36 -45 -13 -6 -29 -22 -35 -36 -10 -23 -8 -29 17 -53 15 -15 25 -22 21
-15 -15 27 14 21 37 -8 22 -29 29 -31 104 -36 71 -5 86 -3 121 17 55 31 84 92
88 184 l3 71 -9 -68 c-6 -49 -17 -81 -40 -117 -18 -28 -36 -50 -41 -50 -5 0
-15 13 -24 29 -8 17 -20 33 -26 37 -8 5 -9 3 -4 -5 4 -8 -3 -6 -18 3 -23 16
-44 62 -33 73 2 3 -5 14 -16 25 -11 11 -21 18 -23 16 -1 -1 -10 -18 -19 -35
-18 -37 -8 -45 13 -11 l13 22 13 -25 c13 -24 11 -44 -5 -34 -4 3 -19 1 -32 -4
-21 -8 -20 -9 17 -20 22 -6 45 -11 51 -11 7 0 14 -7 18 -15 8 -23 -36 -19 -68
6 -14 11 -26 18 -26 14 0 -3 -11 5 -24 19 -27 30 -25 71 7 87 14 8 16 13 8 18
-9 6 -7 12 5 22 13 11 18 11 21 2 5 -15 33 -18 33 -4 0 5 -6 11 -12 14 -10 3
-9 9 4 23 23 27 9 51 -19 33 -17 -10 -24 -9 -43 9 -12 11 -20 26 -18 34 3 7
-2 18 -10 24 -12 9 -11 11 8 10 12 -1 27 7 33 16 15 23 -1 37 -18 15 -8 -12
-15 -14 -20 -8 -3 6 -2 11 4 11 6 0 8 7 4 15 -5 14 -7 14 -23 0 -25 -22 -27
-20 -35 38 -4 28 -11 61 -16 72 -6 17 -8 14 -8 -12 -1 -33 -15 -51 -26 -33 -4
6 -11 8 -16 5 -10 -7 -11 10 -3 42 4 13 11 20 19 17 8 -3 18 4 24 15 27 49 1
41 -45 -15z m116 -441 c0 -10 -7 -27 -15 -37 -11 -15 -17 -16 -28 -8 -8 7 -16
9 -19 6 -3 -3 -9 1 -14 8 -4 7 -4 10 0 6 5 -4 20 4 34 18 32 29 42 30 42 7z
m128 -83 c26 0 32 -4 32 -21 0 -20 -4 -21 -45 -16 -25 4 -63 16 -86 27 -32 17
-38 24 -29 35 9 11 18 10 53 -6 23 -10 57 -19 75 -19z m80 -17 c2 -8 -5 -13
-17 -13 -12 0 -21 6 -21 16 0 18 31 15 38 -3z"/>
<path d="M4056 1092 c-8 -13 8 -32 21 -24 8 5 7 11 -3 19 -7 7 -15 9 -18 5z"/>
<path d="M1480 1056 c24 -15 98 -42 136 -51 10 -2 35 -9 54 -14 19 -6 44 -11
55 -11 17 0 17 2 5 10 -8 5 -24 10 -35 10 -17 0 -89 21 -220 65 -14 4 -12 2 5
-9z"/>
<path d="M4390 1038 c0 -4 9 -8 20 -8 11 0 20 4 20 8 0 4 -9 8 -20 8 -11 0
-20 -4 -20 -8z"/>
<path d="M570 1005 c0 -8 9 -10 25 -7 14 2 25 6 25 7 0 1 -11 5 -25 7 -16 3
-25 1 -25 -7z"/>
<path d="M4060 996 c0 -2 11 -6 25 -8 14 -3 25 -1 25 3 0 5 -11 9 -25 9 -14 0
-25 -2 -25 -4z"/>
<path d="M772 949 c-11 -18 -14 -18 -28 -4 -23 22 -30 18 -9 -5 10 -11 21 -20
24 -20 8 0 34 41 29 46 -2 1 -9 -6 -16 -17z"/>
<path d="M4050 920 c-9 -16 -8 -18 5 -14 8 3 13 10 10 14 -3 5 1 11 7 13 10 4
10 6 1 6 -7 1 -17 -8 -23 -19z"/>
<path d="M2350 912 c-41 -8 -76 -16 -78 -18 -2 -1 -5 -14 -6 -29 -2 -17 2 -29
13 -32 29 -11 49 -34 76 -88 14 -30 34 -57 45 -60 20 -6 56 -55 40 -55 -5 0
-10 -4 -10 -10 0 -5 7 -10 16 -10 12 0 15 6 10 25 -4 14 -2 25 4 25 5 0 10 7
10 16 0 10 -8 15 -22 13 -48 -4 -58 8 -60 79 -1 17 -6 32 -11 32 -16 0 -57 37
-49 45 4 4 -3 5 -15 2 -18 -4 -23 -1 -23 13 0 24 16 34 27 17 6 -12 20 -12 71
-4 66 11 69 14 50 38 -11 13 -22 13 -88 1z"/>
<path d="M498 909 c-10 -5 -18 -18 -17 -27 0 -14 2 -14 6 -2 4 8 13 20 22 27
19 15 13 16 -11 2z"/>
<path d="M828 862 c-3 -10 0 -19 6 -19 7 0 12 9 12 19 0 23 -12 23 -18 0z"/>
<path d="M795 848 c4 -11 2 -18 -4 -18 -6 0 -11 -4 -11 -10 0 -16 17 -11 24 7
4 9 2 21 -4 27 -8 8 -9 6 -5 -6z"/>
<path d="M1155 846 c3 -11 0 -23 -7 -28 -9 -5 -10 -8 -1 -8 19 0 25 18 13 37
-11 17 -11 16 -5 -1z"/>
<path d="M416 817 c-16 -12 -16 -13 3 -13 11 0 23 6 25 13 3 7 2 13 -2 13 -5
0 -16 -6 -26 -13z"/>
<path d="M1380 790 c-12 -8 -10 -10 10 -10 14 0 32 5 40 10 12 8 10 10 -10 10
-14 0 -32 -5 -40 -10z"/>
<path d="M2430 780 c0 -5 6 -10 14 -10 10 0 16 -13 19 -37 l4 -38 1 41 c2 30
-2 44 -14 48 -21 8 -24 8 -24 -4z"/>
<path d="M1330 765 c0 -8 5 -15 10 -15 6 0 10 7 10 15 0 8 -4 15 -10 15 -5 0
-10 -7 -10 -15z"/>
<path d="M2317 740 c7 -40 21 -70 63 -137 23 -36 31 -42 36 -29 4 10 -9 39
-34 79 -22 34 -47 76 -56 92 l-15 30 6 -35z"/>
<path d="M1981 722 c-2 -37 113 -212 160 -246 12 -8 18 -19 15 -25 -4 -7 -1
-8 8 -5 9 3 16 1 16 -5 0 -6 5 -11 11 -11 6 0 26 -12 44 -26 19 -14 35 -25 37
-24 2 1 16 -4 32 -10 16 -6 31 -8 34 -5 6 6 10 4 -58 38 -103 52 -220 173
-276 287 -13 25 -23 39 -23 32z"/>
<path d="M901 681 c-1 -16 3 -21 13 -18 8 3 16 2 18 -3 2 -6 9 -5 18 0 13 8
12 10 -2 10 -10 0 -21 0 -25 -1 -4 0 -10 8 -14 18 -7 15 -8 14 -8 -6z"/>
<path d="M1350 675 c0 -16 16 -20 24 -6 3 5 -1 11 -9 15 -9 3 -15 0 -15 -9z"/>
<path d="M1567 683 c-4 -3 -7 -11 -7 -17 0 -6 4 -6 11 1 6 6 19 9 28 6 14 -4
14 -3 1 6 -18 13 -24 13 -33 4z"/>
<path d="M3133 683 c15 -2 39 -2 55 0 15 2 2 4 -28 4 -30 0 -43 -2 -27 -4z"/>
<path d="M588 649 c-9 -10 -14 -20 -11 -23 7 -7 36 22 31 32 -2 4 -10 0 -20
-9z"/>
<path d="M1260 660 c0 -14 28 -19 33 -6 3 6 -4 13 -14 13 -10 1 -19 -2 -19 -7z"/>
<path d="M1420 655 c0 -8 8 -15 18 -14 10 0 12 3 4 6 -6 2 -10 9 -6 14 3 5 0
9 -5 9 -6 0 -11 -7 -11 -15z"/>
<path d="M1050 610 c0 -6 -10 -15 -22 -20 -14 -5 -17 -9 -7 -9 23 -1 55 24 41
33 -7 4 -12 2 -12 -4z"/>
<path d="M4176 605 c-3 -9 0 -15 9 -15 8 0 15 7 15 15 0 8 -4 15 -9 15 -5 0
-11 -7 -15 -15z"/>
<path d="M936 585 c-3 -9 -12 -12 -23 -9 -15 5 -16 4 -3 -5 23 -16 36 -13 37
9 2 24 -3 26 -11 5z"/>
<path d="M1640 590 c0 -5 -6 -10 -14 -10 -8 0 -17 -3 -19 -7 -3 -5 6 -8 19 -8
16 0 24 6 24 18 0 9 -2 17 -5 17 -3 0 -5 -4 -5 -10z"/>
<path d="M405 572 c-5 -4 -16 -14 -22 -23 -10 -13 -10 -16 2 -16 8 0 13 3 10
5 -3 3 2 14 12 24 17 18 16 23 -2 10z"/>
<path d="M1700 560 c0 -5 -7 -7 -15 -4 -8 4 -15 2 -15 -4 0 -14 33 -8 38 6 2
7 1 12 -2 12 -3 0 -6 -4 -6 -10z"/>
<path d="M4143 559 c14 -8 22 -8 30 0 8 8 3 11 -18 11 -26 -1 -28 -2 -12 -11z"/>
<path d="M140 509 l-35 -30 38 26 c33 24 43 35 34 35 -1 0 -18 -14 -37 -31z"/>
<path d="M1165 496 c0 -14 5 -22 12 -19 9 4 10 10 2 24 -13 24 -14 24 -14 -5z"/>
<path d="M302 490 c-44 -24 -53 -34 -22 -25 25 8 81 46 64 44 -5 -1 -24 -10
-42 -19z"/>
<path d="M981 479 c-35 -28 -22 -32 14 -3 17 13 26 24 20 24 -5 -1 -21 -10
-34 -21z"/>
<path d="M1350 483 c0 -5 5 -15 10 -23 8 -12 10 -11 10 8 0 12 -4 22 -10 22
-5 0 -10 -3 -10 -7z"/>
<path d="M1564 476 c-4 -11 -13 -15 -26 -10 -14 4 -18 2 -14 -5 4 -6 13 -11
20 -11 16 0 41 28 33 37 -4 3 -9 -2 -13 -11z"/>
<path d="M1470 460 c0 -13 11 -13 30 0 12 8 11 10 -7 10 -13 0 -23 -4 -23 -10z"/>
<path d="M477 440 c-19 -22 -21 -30 -9 -30 5 0 14 11 20 25 14 30 12 31 -11 5z"/>
<path d="M1211 446 c-9 -10 -8 -15 3 -19 11 -4 13 -1 9 10 -5 13 -2 15 11 10
10 -4 15 -3 11 3 -9 14 -21 12 -34 -4z"/>
<path d="M1650 444 c0 -13 -8 -24 -20 -27 -11 -3 -20 -10 -20 -16 0 -8 6 -9
18 -2 30 16 42 35 32 51 -8 12 -10 11 -10 -6z"/>
<path d="M302 430 c-6 -11 -12 -28 -11 -37 0 -12 4 -9 10 8 7 20 15 25 32 22
12 -2 31 3 42 11 11 8 15 16 8 16 -6 0 -15 -4 -18 -10 -8 -13 -42 -13 -47 0
-2 6 -9 1 -16 -10z"/>
<path d="M797 398 c-24 -26 -30 -28 -45 -16 -15 12 -16 11 -4 -4 20 -25 45
-18 69 19 27 41 17 42 -20 1z"/>
<path d="M515 401 c-6 -11 9 -23 19 -14 9 9 7 23 -3 23 -6 0 -12 -4 -16 -9z"/>
<path d="M1268 400 c-2 -6 -11 -12 -20 -14 -10 -1 -20 -5 -24 -9 -4 -3 4 -4
16 -2 26 5 47 22 38 30 -3 4 -8 1 -10 -5z"/>
<path d="M1340 385 c-11 -13 -11 -18 0 -28 10 -9 11 -9 6 1 -10 17 4 38 15 21
4 -7 11 -11 14 -8 3 4 -1 11 -8 18 -11 9 -17 8 -27 -4z"/>
<path d="M1833 389 c9 -5 17 -18 17 -27 0 -14 2 -14 9 -3 10 16 -9 41 -31 41
-8 0 -7 -4 5 -11z"/>
<path d="M1433 375 c0 -8 5 -11 10 -8 5 3 13 -1 18 -8 6 -10 9 -10 9 -2 0 7
-8 17 -18 22 -14 7 -19 6 -19 -4z"/>
<path d="M1190 372 c0 -4 9 -13 20 -20 19 -12 20 -11 8 8 -13 20 -28 27 -28
12z"/>
<path d="M1538 374 c-8 -8 3 -44 14 -44 5 0 4 8 -1 19 -6 10 -7 21 -4 25 3 3
4 6 1 6 -2 0 -7 -3 -10 -6z"/>
<path d="M200 360 c0 -13 11 -13 30 0 12 8 11 10 -7 10 -13 0 -23 -4 -23 -10z"/>
<path d="M1296 355 c4 -8 10 -12 15 -9 14 8 10 24 -6 24 -9 0 -12 -6 -9 -15z"/>
<path d="M1494 326 c1 -25 10 -34 20 -18 2 4 -2 15 -9 25 -12 17 -13 16 -11
-7z"/>
<path d="M325 320 c-4 -6 -10 -8 -14 -6 -4 3 -8 -1 -8 -9 0 -10 5 -11 19 -4
10 5 18 14 18 19 0 13 -7 13 -15 0z"/>
<path d="M1837 315 c-4 -8 -11 -15 -17 -15 -6 0 -8 5 -4 12 5 7 3 8 -5 3 -9
-5 -10 -10 -2 -18 8 -8 16 -6 28 6 9 9 14 19 11 22 -3 3 -8 -1 -11 -10z"/>
<path d="M2189 322 c11 -8 11 -10 0 -15 -10 -4 -8 -6 4 -6 21 -1 18 21 -4 27
-12 3 -12 2 0 -6z"/>
<path d="M1314 294 c-1 -13 2 -21 7 -18 11 6 12 31 2 37 -5 3 -9 -6 -9 -19z"/>
<path d="M526 280 c-8 -16 -11 -30 -6 -30 4 0 13 14 19 30 5 17 8 30 6 30 -2
0 -10 -13 -19 -30z"/>
<path d="M926 284 c-17 -24 -17 -26 -1 -22 10 1 20 13 21 26 5 28 3 27 -20 -4z"/>
<path d="M1383 279 c14 -8 22 -8 30 0 8 8 3 11 -18 11 -26 -1 -28 -2 -12 -11z"/>
<path d="M1077 263 c-9 -9 -9 -53 1 -53 4 0 7 14 7 30 0 17 0 30 -1 30 0 0 -4
-3 -7 -7z"/>
<path d="M1527 263 c7 -2 9 -12 6 -21 -6 -18 -5 -17 14 8 10 13 8 16 -10 17
-12 0 -17 -1 -10 -4z"/>
<path d="M1840 261 c0 -10 30 -24 37 -17 3 2 -5 9 -16 16 -12 6 -21 7 -21 1z"/>
<path d="M640 230 c-14 -17 -30 -30 -37 -30 -6 0 -14 -4 -18 -10 -13 -21 51
12 68 36 27 36 16 39 -13 4z"/>
<path d="M864 249 c-3 -6 -1 -16 5 -22 8 -8 11 -5 11 11 0 24 -5 28 -16 11z"/>
<path d="M1147 226 c-4 -10 -3 -15 3 -11 6 3 11 -4 11 -17 1 -17 3 -18 6 -5 2
9 9 15 14 12 5 -4 9 -1 9 4 0 6 -6 11 -14 11 -8 0 -16 5 -18 12 -3 7 -7 5 -11
-6z"/>
<path d="M1330 220 c-14 -10 -23 -21 -20 -23 3 -2 16 6 30 19 30 29 25 31 -10
4z"/>
<path d="M1585 219 c-4 -11 -4 -23 -1 -26 3 -4 6 -1 6 5 0 6 7 18 16 26 13 14
13 16 0 16 -8 0 -18 -9 -21 -21z"/>
<path d="M2165 231 c3 -5 -1 -11 -7 -14 -7 -2 -10 -8 -5 -13 4 -4 14 -1 23 8
14 14 14 16 -1 22 -9 3 -14 2 -10 -3z"/>
<path d="M477 216 c-4 -10 0 -12 14 -9 10 3 16 9 13 14 -8 13 -21 11 -27 -5z"/>
<path d="M1255 219 c-4 -6 -13 -8 -21 -5 -8 3 -11 0 -7 -10 5 -13 8 -13 24 2
19 17 23 24 15 24 -3 0 -8 -5 -11 -11z"/>
<path d="M1987 223 c-3 -5 -2 -15 2 -22 5 -7 11 -9 14 -4 3 5 2 15 -2 22 -5 7
-11 9 -14 4z"/>
<path d="M4304 223 c4 -4 19 -9 34 -11 35 -4 25 5 -12 12 -16 3 -25 2 -22 -1z"/>
<path d="M721 206 c-7 -8 -9 -21 -5 -27 5 -9 10 -5 16 11 10 28 5 36 -11 16z"/>
<path d="M773 200 c-11 -16 -10 -18 1 -14 15 6 30 34 18 34 -4 0 -13 -9 -19
-20z"/>
<path d="M1637 211 c9 -11 7 -18 -10 -33 l-22 -19 26 15 c28 18 45 11 27 -11
-8 -11 -7 -12 6 -7 22 9 20 17 -11 45 -16 13 -23 18 -16 10z"/>
<path d="M253 194 c-8 -8 -9 -15 -3 -19 6 -3 10 -2 10 4 0 5 8 11 18 13 14 3
14 5 2 10 -8 3 -21 0 -27 -8z"/>
<path d="M867 186 c-16 -23 -15 -23 8 -12 13 6 20 13 15 14 -6 2 -8 8 -4 13
12 21 -5 7 -19 -15z"/>
<path d="M1887 190 c-3 -11 -2 -20 3 -20 12 0 21 28 11 35 -5 2 -11 -4 -14
-15z"/>
<path d="M4384 195 c20 -15 36 -12 36 8 0 8 -3 8 -9 -2 -6 -9 -11 -10 -15 -2
-4 6 -13 11 -19 11 -7 0 -3 -7 7 -15z"/>
<path d="M1463 169 c1 -11 9 -19 19 -19 23 0 22 2 -1 22 -18 16 -20 15 -18 -3z"/>
<path d="M1940 179 c0 -6 -7 -8 -17 -4 -14 5 -15 3 -6 -6 6 -6 19 -9 27 -6 18
7 22 27 6 27 -5 0 -10 -5 -10 -11z"/>
<path d="M820 159 c0 -15 -5 -19 -16 -15 -8 3 -12 2 -9 -4 12 -20 35 -10 35
15 0 14 -2 25 -5 25 -3 0 -5 -9 -5 -21z"/>
<path d="M530 161 c0 -10 26 -9 36 2 4 4 -2 7 -14 7 -12 0 -22 -4 -22 -9z"/>
<path d="M12 148 c-15 -15 -15 -35 -2 -43 6 -4 7 1 3 10 -3 10 0 21 8 25 7 5
11 11 8 14 -3 3 -11 0 -17 -6z"/>
<path d="M1193 142 c-8 -5 -9 -13 -3 -22 6 -8 10 -13 11 -10 0 3 2 13 4 23 4
19 4 19 -12 9z"/>
<path d="M1253 131 c-12 -10 -19 -21 -16 -25 3 -3 0 -14 -7 -23 -8 -10 0 -5
17 12 16 16 30 36 30 42 0 7 -1 13 -1 13 -1 -1 -11 -9 -23 -19z"/>
<path d="M2016 134 c-4 -10 -1 -14 6 -12 15 5 23 28 10 28 -5 0 -13 -7 -16
-16z"/>
<path d="M4420 142 c0 -14 43 -23 54 -12 7 7 4 10 -6 10 -9 0 -23 3 -32 6 -9
3 -16 2 -16 -4z"/>
<path d="M1350 120 c-14 -11 -20 -20 -15 -19 13 0 50 28 44 33 -2 3 -15 -4
-29 -14z"/>
<path d="M4011 135 c0 -12 24 -45 33 -45 3 0 6 8 6 17 0 9 -3 13 -7 10 -3 -4
-12 1 -19 11 -7 9 -13 13 -13 7z"/>
<path d="M291 119 c-13 -5 -22 -12 -19 -15 3 -3 21 2 39 10 37 16 19 21 -20 5z"/>
<path d="M470 120 c7 -4 9 -13 5 -20 -5 -8 0 -7 14 2 28 17 26 23 -6 25 -16 1
-21 -2 -13 -7z"/>
<path d="M1539 123 c-9 -2 -22 -16 -28 -31 l-13 -27 34 30 c18 17 35 31 37 33
6 3 -10 1 -30 -5z"/>
<path d="M2400 117 c-14 -11 -25 -37 -16 -37 2 0 11 11 20 25 18 28 18 30 -4
12z"/>
<path d="M4290 121 c0 -5 9 -11 21 -14 16 -4 18 -3 8 9 -13 16 -29 19 -29 5z"/>
<path d="M157 106 c-16 -12 -16 -14 -2 -20 9 -3 13 -2 10 3 -3 6 3 14 12 20
10 6 14 10 8 10 -5 0 -18 -6 -28 -13z"/>
<path d="M634 93 c-3 -10 -5 -22 -6 -28 -1 -5 -8 -15 -17 -22 -9 -7 -11 -13
-5 -13 17 0 35 26 38 55 4 29 -4 34 -10 8z"/>
<path d="M1160 93 c0 -7 10 -17 21 -24 16 -8 20 -8 17 1 -2 6 -7 11 -12 10 -5
-1 -13 4 -17 12 -6 9 -9 9 -9 1z"/>
<path d="M203 73 c-4 -10 -11 -21 -17 -25 -8 -5 -7 -8 1 -8 7 0 17 9 23 20 6
12 17 17 28 14 14 -5 15 -4 2 5 -21 15 -30 14 -37 -6z"/>
<path d="M318 54 c-16 -8 -28 -17 -28 -19 0 -10 16 -4 40 15 30 23 25 25 -12
4z"/>
<path d="M393 63 c20 -5 23 -19 5 -26 -8 -3 -8 -6 -2 -6 6 -1 18 7 27 17 14
16 13 17 -16 18 -18 1 -24 -1 -14 -3z"/>
<path d="M2977 57 c-3 -9 1 -18 9 -21 16 -6 18 2 5 22 -7 11 -9 11 -14 -1z"/>
<path d="M1060 50 c-8 -5 -11 -12 -8 -16 10 -9 38 3 38 16 0 12 -10 13 -30 0z"/>
<path d="M1545 50 c11 -5 29 -8 40 -8 16 0 15 2 -5 8 -34 11 -60 11 -35 0z"/>
<path d="M1930 45 c0 -8 5 -15 10 -15 6 0 10 7 10 15 0 8 -4 15 -10 15 -5 0
-10 -7 -10 -15z"/>
<path d="M2014 43 c0 -10 -5 -17 -11 -15 -7 1 -13 -2 -13 -8 0 -14 13 -13 28
2 14 14 16 38 3 38 -5 0 -8 -8 -7 -17z"/>
<path d="M830 43 c1 -18 18 -35 24 -24 4 6 4 16 1 21 -7 12 -25 13 -25 3z"/>
<path d="M1430 40 c0 -5 7 -10 15 -10 8 0 15 5 15 10 0 6 -7 10 -15 10 -8 0
-15 -4 -15 -10z"/>
<path d="M680 19 c0 -11 5 -17 10 -14 6 3 10 13 10 21 0 8 -4 14 -10 14 -5 0
-10 -9 -10 -21z"/>
</g>
</svg>
